<svg width="78" height="51" viewBox="0 0 78 51" fill="none" xmlns="http://www.w3.org/2000/svg">
<path d="M17.1014 1.05894C9.47352 1.12347 8.57005 1.16219 7.87309 1.3687C3.96236 2.5432 1.07126 5.64079 0.180694 9.64184C0.0387201 10.2743 0 13.359 0 26.0333V41.6503L0.296854 42.7473C1.32939 46.658 4.20759 49.5491 8.16994 50.6591C9.13794 50.9301 9.40899 50.9301 18.3017 50.9818C23.3224 51.0076 27.4267 50.9689 27.4138 50.9172C27.4138 50.8656 26.5104 50.2461 25.4004 49.5491L23.3998 48.2972H16.8432C9.35736 48.2972 8.97016 48.2585 7.16322 47.3808C4.96908 46.2967 3.29121 44.0896 2.83947 41.6761C2.55553 40.1918 2.55553 11.8489 2.83947 10.2872C3.36865 7.33156 5.65314 4.85349 8.71202 3.93711C9.31864 3.75642 10.377 3.7177 16.456 3.67898L23.4902 3.62736L24.7551 2.37542C25.4391 1.69136 26.007 1.09766 26.007 1.05894C26.007 1.02022 25.9038 0.981503 25.7876 0.994408C25.6585 0.994408 21.7478 1.02022 17.1014 1.05894Z" fill="black"/>
<path d="M52.5559 1.14456C52.4011 1.222 51.6396 1.58339 50.8781 1.95768C48.4645 3.14509 46.4898 4.81006 45.0055 6.91384C44.4247 7.73987 44.244 7.92057 44.0246 7.86894C43.8697 7.83022 43.3019 7.68824 42.7469 7.53336C34.9254 5.45539 26.407 8.41102 21.5412 14.916C19.9795 16.9939 18.7146 19.5882 18.4952 21.137C18.2758 22.6858 18.2242 24.8154 18.4049 25.422C18.6372 26.2609 19.8504 28.2486 20.6377 29.0488C21.3863 29.8232 22.5866 30.5976 23.8257 31.0751C26.7942 32.2496 32.1376 32.2754 35.6869 31.1397C36.913 30.7525 40.0494 29.1778 40.7851 28.597C43.2373 26.6481 45.3927 24.1313 47.4836 20.7498C48.8775 18.504 48.9808 18.3492 49.1099 18.4266C49.3164 18.5557 50.2198 20.2335 50.6329 21.2661C51.9622 24.6089 51.9881 28.2357 50.7232 31.6043C48.6839 37.0122 43.0953 40.8197 37.1712 40.8197C35.1577 40.8197 32.5635 40.2259 30.8469 39.3741C28.8076 38.3545 26.3296 36.2507 25.1551 34.547C24.742 33.9404 24.5614 33.8113 23.6966 33.4499C23.1545 33.2305 22.4963 32.9337 22.2381 32.8046C21.5928 32.482 21.6057 32.611 22.3156 33.9275C23.3352 35.8248 24.2774 37.1154 25.5164 38.3158C29.0271 41.7102 33.5186 43.3365 38.4618 42.988C44.1924 42.575 49.1873 39.2838 51.9235 34.1082C54.1177 29.9651 54.4016 25.0477 52.7108 20.6594C52.2204 19.3946 51.7557 18.5169 50.8781 17.2134C50.2586 16.297 50.2457 16.2454 50.4005 15.7936C50.478 15.5355 50.6329 15.2128 50.7361 15.0709C50.9297 14.8256 50.9426 14.8256 51.3943 15.329C53.1367 17.3166 54.621 20.3884 55.2663 23.2924C55.589 24.8025 55.589 28.7003 55.2663 30.2104C54.8146 32.2367 53.9241 34.4954 52.9561 36.0055C51.7299 37.9286 49.5616 40.1227 47.6256 41.4263C42.7727 44.6917 36.3839 45.337 30.9373 43.1299C25.994 41.1165 22.3285 37.309 20.6635 32.4303C20.3796 31.6301 20.1215 31.1397 19.6826 30.6234C19.3471 30.2362 18.8308 29.5521 18.5339 29.1004C17.8499 28.0808 17.5788 28.0421 17.695 28.9713C18.2113 33.437 20.186 37.4639 23.4256 40.7035C26.3038 43.5817 28.4979 44.8465 32.8345 46.1372L34.5898 46.6664L37.6874 46.9126C40.9399 46.8351 41.8176 46.3824 44.2053 45.608C45.4444 45.195 47.7418 44.0463 49.1099 43.1299C50.4393 42.2394 52.685 40.1485 53.5498 39.0127C55.4987 36.4185 56.9571 33.0369 57.5121 29.849C57.7444 28.5841 57.7315 24.7638 57.5121 23.5893C56.7635 19.6398 55.2922 16.5809 52.7108 13.5866L51.9235 12.6831L52.2204 12.2056C53.4852 10.1534 55.2018 8.94019 57.6928 8.29486C58.1962 8.16579 58.5963 7.998 58.5963 7.93347C58.5963 7.70115 57.5766 6.35885 57.3443 6.28142C57.0217 6.17816 54.8404 6.95256 53.9628 7.48174C52.4011 8.43683 50.9297 10.0889 49.7294 12.2443C49.5358 12.5928 49.226 13.1219 49.0453 13.4317C48.8646 13.7286 48.7884 13.9988 48.7476 14.0793C48.6231 14.3246 48.0103 15.5373 47.8837 15.7807C47.8303 15.8835 47.7399 16.0135 47.7399 16.1039C47.7399 16.2071 47.5758 16.3638 47.5352 16.5938C47.4578 16.7487 47.3546 16.9423 47.3158 17.0327C46.8125 18.0007 43.56 22.7374 42.6823 23.7829C41.4562 25.2413 40.7076 25.8996 38.9136 27.1128C36.7582 28.5454 35.5578 29.0617 33.2346 29.5521C31.6729 29.8877 27.6719 29.8748 26.1489 29.5521C23.5933 28.9971 21.3089 27.4096 20.4957 25.6285C20.1085 24.7896 19.9795 23.5763 20.1989 22.7503C20.2763 22.4277 20.4054 21.8727 20.4828 21.5242C20.6377 20.7756 21.7735 18.375 22.535 17.1875C26.5361 10.9924 34.2285 7.83022 41.4046 9.40483C41.9208 9.52099 42.4629 9.65005 42.6307 9.67587C43.0437 9.76622 43.1083 9.99853 42.8501 10.4761C42.6178 10.9407 42.6178 10.9407 41.3917 10.6181C39.8558 10.205 38.3457 10.0631 36.4613 10.1405C33.8542 10.2438 31.9698 10.7213 29.6208 11.8829C27.2201 13.0574 25.0905 14.9289 23.2965 17.4586C22.1994 18.9816 22.0187 19.6011 22.0058 21.7436V23.0085L22.5737 23.7441C23.2836 24.6863 23.6063 24.9703 24.3032 25.3446C25.581 26.0028 28.4463 26.3126 29.6466 25.9254C29.9563 25.835 30.4984 25.6801 30.8469 25.5898C31.2083 25.4994 31.8407 25.2671 32.2666 25.0735C32.6926 24.8799 33.2217 24.6863 33.4282 24.6347C34.7964 24.2862 38.3457 21.4338 40.2817 19.1235C41.9467 17.123 43.56 14.4384 44.0117 12.9413C44.1901 12.5292 44.3704 12.1908 44.386 12.0378C44.7068 11.4911 45.8128 9.71459 45.8832 9.59843C45.91 9.55428 46.0271 9.39198 46.145 9.22614C46.2533 9.07365 46.348 8.92644 46.3995 8.83694C46.5986 8.49075 47.4449 7.15907 48.2322 6.41048C49.6261 5.05528 50.9039 4.3067 52.5301 3.85496C53.2271 3.66136 54.1048 3.63555 60.9195 3.68718C69.3605 3.73881 69.0249 3.70008 70.9222 4.62936C72.7549 5.53283 74.3424 7.49464 75.0136 9.65006C75.233 10.3857 75.2459 11.2505 75.2459 26.0415V41.6586L74.8458 42.7557C73.9423 45.2983 72.045 47.1052 69.3734 47.9958C68.728 48.2023 68.0182 48.2281 62.0165 48.2797L55.3696 48.3184L54.1177 49.5704C53.4207 50.2544 52.8528 50.861 52.8528 50.9256C52.8528 50.9901 56.4409 51.0159 60.8291 50.9901C69.8896 50.9385 69.6831 50.9514 72.0192 49.8027C74.8071 48.4217 76.8463 45.8791 77.6724 42.7557L77.9563 41.6586V25.977V10.2954L77.6724 9.19832C76.5753 5.06819 73.1808 1.86734 69.1798 1.2091C67.9407 1.00259 52.9561 0.950964 52.5559 1.14456ZM38.6554 12.283C40.2301 12.4508 41.624 12.8122 41.624 13.0445C41.624 13.5995 39.5718 16.71 38.2295 18.1943C37.3777 19.1236 35.958 20.4658 35.2352 21.0079C34.4221 21.6274 32.1118 22.8536 30.7824 23.3698C30.0467 23.6667 29.7498 23.7054 28.3301 23.7054C26.8716 23.7183 26.6522 23.6925 26.0714 23.3957C25.723 23.2279 25.1809 22.8278 24.884 22.5309C24.3807 22.0405 24.329 21.9243 24.329 21.3693C24.3419 19.9754 24.755 18.9816 25.9295 17.5102C28.9109 13.7931 33.8154 11.7797 38.6554 12.283Z" fill="black"/>
</svg>
